<svg version="1.2" baseProfile="tiny" xmlns="http://www.w3.org/2000/svg" viewBox="0 0 500 333"><path fill="#CCC" d="M0-.5h500v334H0z"/><path d="M161.9 176.2v-27.9h3.9l8.9 14.1c2.1 3.3 3.7 6.2 5 9.1h.1c-.3-3.7-.4-7.1-.4-11.5v-11.7h3.4v27.9h-3.6l-8.8-14.1c-1.9-3.1-3.8-6.3-5.2-9.3h-.1c.2 3.5.3 6.9.3 11.5v11.9h-3.5zm45.2-10.1c0 7.4-5.1 10.6-10 10.6-5.4 0-9.6-4-9.6-10.3 0-6.7 4.4-10.6 9.9-10.6 5.8 0 9.7 4.1 9.7 10.3zm-15.9.2c0 4.4 2.5 7.7 6.1 7.7 3.5 0 6.1-3.3 6.1-7.8 0-3.4-1.7-7.7-6-7.7s-6.2 4-6.2 7.8zm29.3-3.5c0-2.6-.1-4.6-.2-6.5h3.3l.2 3.4h.1c1.5-2.4 3.8-3.9 7.1-3.9 4.8 0 8.5 4.1 8.5 10.2 0 7.2-4.4 10.8-9.1 10.8-2.6 0-5-1.2-6.2-3.1h-.1v10.9h-3.6v-21.8zm3.6 5.3c0 .5.1 1 .2 1.5.7 2.5 2.9 4.3 5.5 4.3 3.8 0 6.1-3.1 6.1-7.7 0-4-2.1-7.4-6-7.4-2.5 0-4.8 1.8-5.5 4.5-.1.5-.2 1-.2 1.5v3.3zm24-17.5c0 1.2-.9 2.2-2.3 2.2-1.3 0-2.2-1-2.2-2.2 0-1.3 1-2.3 2.3-2.3 1.3 0 2.2 1 2.2 2.3zm-4.1 25.6v-20h3.6v20H244zm23.9-.7c-1 .5-3.1 1.2-5.7 1.2-6 0-10-4.1-10-10.2 0-6.2 4.2-10.6 10.8-10.6 2.2 0 4.1.5 5 1l-.8 2.8c-.9-.5-2.2-1-4.2-1-4.6 0-7.1 3.4-7.1 7.6 0 4.6 3 7.5 6.9 7.5 2.1 0 3.4-.5 4.5-1l.6 2.7zm9.2-25v5.7h5.2v2.8h-5.2v10.8c0 2.5.7 3.9 2.7 3.9 1 0 1.7-.1 2.1-.2l.2 2.7c-.7.3-1.8.5-3.2.5-1.7 0-3.1-.5-3.9-1.5-1-1.1-1.4-2.9-1.4-5.2v-11h-3.1v-2.8h3.1v-4.8l3.5-.9zm26.1 20.3c0 2.1 0 3.9.2 5.5h-3.2l-.2-3.3h-.1c-1 1.6-3.1 3.7-6.6 3.7-3.1 0-6.9-1.7-6.9-8.8v-11.7h3.6v11.1c0 3.8 1.2 6.4 4.5 6.4 2.4 0 4.1-1.7 4.8-3.3.2-.5.3-1.2.3-1.9v-12.3h3.6v14.6zm6-8.3c0-2.4 0-4.4-.2-6.2h3.2l.1 3.9h.2c.9-2.7 3.1-4.4 5.5-4.4.4 0 .7 0 1 .1v3.4c-.4-.1-.7-.1-1.2-.1-2.6 0-4.4 1.9-4.9 4.7-.1.5-.2 1.1-.2 1.7v10.7h-3.6v-13.8zm15.2 4.4c.1 4.9 3.2 6.9 6.9 6.9 2.6 0 4.2-.5 5.5-1l.6 2.6c-1.3.6-3.5 1.2-6.7 1.2-6.2 0-9.8-4.1-9.8-10.1s3.6-10.8 9.4-10.8c6.5 0 8.3 5.7 8.3 9.4 0 .7-.1 1.3-.1 1.7h-14.1zm10.6-2.6c0-2.3-1-5.9-5-5.9-3.7 0-5.3 3.4-5.6 5.9H335z"/><path fill="none" stroke="#4D4D4D" stroke-miterlimit="10" d="M411.5 83L445 49.5m-390 234L88.5 250M445 283.5L411.5 250M88.5 83L55 49.5"/></svg>