<?xml version="1.0" encoding="utf-8"?>
<!-- Generator: Adobe Illustrator 22.0.1, SVG Export Plug-In . SVG Version: 6.00 Build 0)  -->
<svg version="1.2" baseProfile="tiny" id="Layer_1" xmlns="http://www.w3.org/2000/svg" xmlns:xlink="http://www.w3.org/1999/xlink"
	 x="0px" y="0px" viewBox="0 0 500 333" xml:space="preserve">
<rect y="-0.5" fill="#CCCCCC" width="500" height="334"/>
<g>
	<path d="M161.9,176.2v-27.9h3.9l8.9,14.1c2.1,3.3,3.7,6.2,5,9.1l0.1,0c-0.3-3.7-0.4-7.1-0.4-11.5v-11.7h3.4v27.9h-3.6l-8.8-14.1
		c-1.9-3.1-3.8-6.3-5.2-9.3l-0.1,0c0.2,3.5,0.3,6.9,0.3,11.5v11.9H161.9z"/>
	<path d="M207.1,166.1c0,7.4-5.1,10.6-10,10.6c-5.4,0-9.6-4-9.6-10.3c0-6.7,4.4-10.6,9.9-10.6C203.2,155.8,207.1,159.9,207.1,166.1z
		 M191.2,166.3c0,4.4,2.5,7.7,6.1,7.7c3.5,0,6.1-3.3,6.1-7.8c0-3.4-1.7-7.7-6-7.7C193.1,158.5,191.2,162.5,191.2,166.3z"/>
	<path d="M220.5,162.8c0-2.6-0.1-4.6-0.2-6.5h3.3l0.2,3.4h0.1c1.5-2.4,3.8-3.9,7.1-3.9c4.8,0,8.5,4.1,8.5,10.2
		c0,7.2-4.4,10.8-9.1,10.8c-2.6,0-5-1.2-6.2-3.1h-0.1v10.9h-3.6V162.8z M224.1,168.1c0,0.5,0.1,1,0.2,1.5c0.7,2.5,2.9,4.3,5.5,4.3
		c3.8,0,6.1-3.1,6.1-7.7c0-4-2.1-7.4-6-7.4c-2.5,0-4.8,1.8-5.5,4.5c-0.1,0.5-0.2,1-0.2,1.5V168.1z"/>
	<path d="M248.1,150.6c0,1.2-0.9,2.2-2.3,2.2c-1.3,0-2.2-1-2.2-2.2c0-1.3,1-2.3,2.3-2.3C247.2,148.3,248.1,149.3,248.1,150.6z
		 M244,176.2v-20h3.6v20H244z"/>
	<path d="M267.9,175.5c-1,0.5-3.1,1.2-5.7,1.2c-6,0-10-4.1-10-10.2c0-6.2,4.2-10.6,10.8-10.6c2.2,0,4.1,0.5,5,1l-0.8,2.8
		c-0.9-0.5-2.2-1-4.2-1c-4.6,0-7.1,3.4-7.1,7.6c0,4.6,3,7.5,6.9,7.5c2.1,0,3.4-0.5,4.5-1L267.9,175.5z"/>
	<path d="M277.1,150.5v5.7h5.2v2.8h-5.2v10.8c0,2.5,0.7,3.9,2.7,3.9c1,0,1.7-0.1,2.1-0.2l0.2,2.7c-0.7,0.3-1.8,0.5-3.2,0.5
		c-1.7,0-3.1-0.5-3.9-1.5c-1-1.1-1.4-2.9-1.4-5.2V159h-3.1v-2.8h3.1v-4.8L277.1,150.5z"/>
	<path d="M303.2,170.8c0,2.1,0,3.9,0.2,5.5h-3.2l-0.2-3.3h-0.1c-1,1.6-3.1,3.7-6.6,3.7c-3.1,0-6.9-1.7-6.9-8.8v-11.7h3.6v11.1
		c0,3.8,1.2,6.4,4.5,6.4c2.4,0,4.1-1.7,4.8-3.3c0.2-0.5,0.3-1.2,0.3-1.9v-12.3h3.6V170.8z"/>
	<path d="M309.2,162.5c0-2.4,0-4.4-0.2-6.2h3.2l0.1,3.9h0.2c0.9-2.7,3.1-4.4,5.5-4.4c0.4,0,0.7,0,1,0.1v3.4
		c-0.4-0.1-0.7-0.1-1.2-0.1c-2.6,0-4.4,1.9-4.9,4.7c-0.1,0.5-0.2,1.1-0.2,1.7v10.7h-3.6V162.5z"/>
	<path d="M324.4,166.9c0.1,4.9,3.2,6.9,6.9,6.9c2.6,0,4.2-0.5,5.5-1l0.6,2.6c-1.3,0.6-3.5,1.2-6.7,1.2c-6.2,0-9.8-4.1-9.8-10.1
		c0-6,3.6-10.8,9.4-10.8c6.5,0,8.3,5.7,8.3,9.4c0,0.7-0.1,1.3-0.1,1.7H324.4z M335,164.3c0-2.3-1-5.9-5-5.9c-3.7,0-5.3,3.4-5.6,5.9
		H335z"/>
</g>
<line fill="none" stroke="#4D4D4D" stroke-miterlimit="10" x1="411.5" y1="83" x2="445" y2="49.5"/>
<line fill="none" stroke="#4D4D4D" stroke-miterlimit="10" x1="55" y1="283.5" x2="88.5" y2="250"/>
<line fill="none" stroke="#4D4D4D" stroke-miterlimit="10" x1="445" y1="283.5" x2="411.5" y2="250"/>
<line fill="none" stroke="#4D4D4D" stroke-miterlimit="10" x1="88.5" y1="83" x2="55" y2="49.5"/>
</svg>
